<svg width="256" height="452" viewBox="0 0 256 452" fill="none" xmlns="http://www.w3.org/2000/svg">
<g opacity="0.68">
<path d="M206.062 116.75L238.803 130.414L206.062 144.664L173.322 130.414L206.062 116.75Z" fill="url(#paint0_linear_9729_271409)"/>
<path d="M238.759 130.473L206.108 144.602V176.306L206.113 483.609H239.334L238.759 130.473Z" fill="url(#paint1_linear_9729_271409)" style="mix-blend-mode:screen"/>
<path d="M238.764 130.414L206.112 144.544V176.247L206.117 409.462H239.338L238.764 130.414Z" fill="url(#paint2_linear_9729_271409)"/>
<path d="M173.457 130.473L206.108 144.604V176.306L206.112 408.953H172.891L173.457 130.473Z" fill="url(#paint3_linear_9729_271409)"/>
<path d="M119.662 232.89L152.408 246.556L119.662 260.808L86.9161 246.556L119.662 232.89Z" fill="url(#paint4_linear_9729_271409)"/>
<path d="M152.316 246.555L119.665 260.684V292.388L119.67 410.556H152.891L152.316 246.555Z" fill="url(#paint5_linear_9729_271409)"/>
<path d="M87.012 246.555L119.663 260.686V292.388L119.666 410.556H86.4454L87.012 246.555Z" fill="url(#paint6_linear_9729_271409)"/>
<path d="M33.2188 311.347L65.9647 325.013L33.2188 339.265L0.47275 325.013L33.2188 311.347Z" fill="url(#paint7_linear_9729_271409)"/>
<path d="M65.8691 325.012L33.2179 339.141V370.845L33.2243 408.943H66.4453L65.8691 325.012Z" fill="url(#paint8_linear_9729_271409)"/>
<path d="M0.56656 325.012L33.2178 339.143V370.845L33.221 408.943H3.96025e-06L0.56656 325.012Z" fill="url(#paint9_linear_9729_271409)"/>
</g>
<defs>
<linearGradient id="paint0_linear_9729_271409" x1="183.126" y1="107.779" x2="247.847" y2="158.708" gradientUnits="userSpaceOnUse">
<stop stop-color="#8568E7" stop-opacity="0.4"/>
<stop offset="1" stop-color="#8568E7" stop-opacity="0"/>
</linearGradient>
<linearGradient id="paint1_linear_9729_271409" x1="222.72" y1="497.564" x2="222.72" y2="130.473" gradientUnits="userSpaceOnUse">
<stop stop-color="#8568E7" stop-opacity="0"/>
<stop offset="1" stop-color="#8568E7"/>
</linearGradient>
<linearGradient id="paint2_linear_9729_271409" x1="222.724" y1="430.955" x2="222.724" y2="130.414" gradientUnits="userSpaceOnUse">
<stop stop-color="white" stop-opacity="0"/>
<stop offset="0.745192" stop-color="#A790F7"/>
<stop offset="1" stop-color="#C3B2FF"/>
</linearGradient>
<linearGradient id="paint3_linear_9729_271409" x1="189.502" y1="497.004" x2="189.502" y2="130.473" gradientUnits="userSpaceOnUse">
<stop stop-color="white" stop-opacity="0"/>
<stop offset="1" stop-color="#8568E7" stop-opacity="0.3"/>
</linearGradient>
<linearGradient id="paint4_linear_9729_271409" x1="96.7222" y1="223.917" x2="161.453" y2="274.854" gradientUnits="userSpaceOnUse">
<stop stop-color="#8568E7" stop-opacity="0.4"/>
<stop offset="1" stop-color="#8568E7" stop-opacity="0"/>
</linearGradient>
<linearGradient id="paint5_linear_9729_271409" x1="136.277" y1="417.037" x2="136.277" y2="246.555" gradientUnits="userSpaceOnUse">
<stop stop-color="#8568E7" stop-opacity="0"/>
<stop offset="1" stop-color="#8568E7" stop-opacity="0.3"/>
</linearGradient>
<linearGradient id="paint6_linear_9729_271409" x1="103.057" y1="246.555" x2="103.057" y2="444.334" gradientUnits="userSpaceOnUse">
<stop offset="0.256218" stop-color="#8568E7" stop-opacity="0.1"/>
<stop offset="1" stop-color="white" stop-opacity="0"/>
</linearGradient>
<linearGradient id="paint7_linear_9729_271409" x1="10.2788" y1="302.374" x2="75.0093" y2="353.311" gradientUnits="userSpaceOnUse">
<stop stop-color="#8568E7" stop-opacity="0.4"/>
<stop offset="1" stop-color="#8568E7" stop-opacity="0"/>
</linearGradient>
<linearGradient id="paint8_linear_9729_271409" x1="49.831" y1="412.259" x2="49.831" y2="356.5" gradientUnits="userSpaceOnUse">
<stop stop-color="white" stop-opacity="0"/>
<stop offset="1" stop-color="#8568E7" stop-opacity="0.3"/>
</linearGradient>
<linearGradient id="paint9_linear_9729_271409" x1="16.6111" y1="368.5" x2="16.6111" y2="426.229" gradientUnits="userSpaceOnUse">
<stop stop-color="#8568E7" stop-opacity="0.1"/>
<stop offset="1" stop-color="white" stop-opacity="0"/>
</linearGradient>
</defs>
</svg>
